{"accessors" : [{"bufferView" : 0, "byteOffset" : 0, "componentType" : 5123, "count" : 618, "type" : "SCALAR", "max" : [617], "min" : [0]}, {"bufferView" : 1, "byteOffset" : 0, "componentType" : 5126, "count" : 618, "type" : "VEC3", "max" : [0.05028774216771126, -0.09145035594701767, 1.7428988218307495], "min" : [0.011662357486784458, -0.11064734309911728, 1.7043325901031494], "name" : "POSITION"}, {"bufferView" : 1, "byteOffset" : 12, "componentType" : 5126, "count" : 618, "type" : "VEC3", "max" : [0.940598726272583, 1.0000044107437134, 0.9512251019477844], "min" : [-0.9471083283424377, -1.0000042915344238, -0.948518693447113], "name" : "NORMAL"}, {"bufferView" : 1, "byteOffset" : 24, "componentType" : 5126, "count" : 618, "type" : "VEC2", "max" : [0.9646214246749878, 0.9818061590194702], "min" : [0.019903719425201416, 0.020990610122680664], "name" : "TEXCOORD_0"}, {"bufferView" : 0, "byteOffset" : 1236, "componentType" : 5123, "count" : 618, "type" : "SCALAR", "max" : [617], "min" : [0]}, {"bufferView" : 2, "byteOffset" : 0, "componentType" : 5126, "count" : 618, "type" : "VEC3", "max" : [-0.011932834051549435, -0.09145036339759827, 1.7429386377334595], "min" : [-0.050404660403728485, -0.11064736545085907, 1.7042930126190186], "name" : "POSITION"}, {"bufferView" : 2, "byteOffset" : 12, "componentType" : 5126, "count" : 618, "type" : "VEC3", "max" : [0.9310550093650818, 1.0000044107437134, 0.947867751121521], "min" : [-0.9491578340530396, -1.0000042915344238, -0.9364768266677856], "name" : "NORMAL"}, {"bufferView" : 2, "byteOffset" : 24, "componentType" : 5126, "count" : 618, "type" : "VEC2", "max" : [0.9585750699043274, 0.966354489326477], "min" : [0.006885886192321777, 0.022762417793273926], "name" : "TEXCOORD_0"}, {"bufferView" : 0, "byteOffset" : 2472, "componentType" : 5123, "count" : 12282, "type" : "SCALAR", "max" : [12281], "min" : [0]}, {"bufferView" : 3, "byteOffset" : 0, "componentType" : 5126, "count" : 12282, "type" : "VEC3", "max" : [0.09579432010650635, 0.08657767623662949, 1.8330845832824707], "min" : [-0.09610731899738312, -0.14353294670581818, 1.520606279373169], "name" : "POSITION"}, {"bufferView" : 3, "byteOffset" : 12, "componentType" : 5126, "count" : 12282, "type" : "VEC3", "max" : [0.9992223381996155, 0.9999959468841553, 0.9998698234558105], "min" : [-0.9992170333862305, -0.9999848008155823, -0.9999939203262329], "name" : "NORMAL"}, {"bufferView" : 3, "byteOffset" : 24, "componentType" : 5126, "count" : 12282, "type" : "VEC2", "max" : [0.9943000078201294, 0.9807000160217285], "min" : [0.004999999888241291, 0.004350006580352783], "name" : "TEXCOORD_0"}, {"bufferView" : 0, "byteOffset" : 27036, "componentType" : 5123, "count" : 300, "type" : "SCALAR", "max" : [299], "min" : [0]}, {"bufferView" : 4, "byteOffset" : 0, "componentType" : 5126, "count" : 300, "type" : "VEC3", "max" : [0.02856585942208767, -0.05518125370144844, 1.6739544868469238], "min" : [-0.02856585942208767, -0.12344654649496078, 1.6374715566635132], "name" : "POSITION"}, {"bufferView" : 4, "byteOffset" : 12, "componentType" : 5126, "count" : 300, "type" : "VEC3", "max" : [0.9971879124641418, 0.7650234699249268, 0.8775960803031921], "min" : [-0.9971880316734314, -0.9974817037582397, -0.985837996006012], "name" : "NORMAL"}, {"bufferView" : 4, "byteOffset" : 24, "componentType" : 5126, "count" : 300, "type" : "VEC2", "max" : [0.9808249473571777, 0.983213484287262], "min" : [0.051069796085357666, 0.02829587459564209], "name" : "TEXCOORD_0"}, {"bufferView" : 0, "byteOffset" : 27636, "componentType" : 5123, "count" : 5604, "type" : "SCALAR", "max" : [5603], "min" : [0]}, {"bufferView" : 5, "byteOffset" : 0, "componentType" : 5126, "count" : 5604, "type" : "VEC3", "max" : [0.0859420970082283, 0.08940007537603378, 1.8573020696640015], "min" : [-0.08964315056800842, -0.13745281100273132, 1.7276231050491333], "name" : "POSITION"}, {"bufferView" : 5, "byteOffset" : 12, "componentType" : 5126, "count" : 5604, "type" : "VEC3", "max" : [0.9980590343475342, 0.9985558986663818, 0.9969055652618408], "min" : [-0.9978241324424744, -0.9996597170829773, -0.9979594349861145], "name" : "NORMAL"}, {"bufferView" : 5, "byteOffset" : 24, "componentType" : 5126, "count" : 5604, "type" : "VEC2", "max" : [0.9979034066200256, 0.9932867288589478], "min" : [0.007772855460643768, 0.005392849445343018], "name" : "TEXCOORD_0"}, {"bufferView" : 0, "byteOffset" : 38844, "componentType" : 5123, "count" : 5022, "type" : "SCALAR", "max" : [5021], "min" : [0]}, {"bufferView" : 6, "byteOffset" : 0, "componentType" : 5126, "count" : 5022, "type" : "VEC3", "max" : [0.5314635634422302, 0.10406740754842758, 1.103089451789856], "min" : [-0.5314708352088928, -0.14859208464622498, 0.06424207240343094], "name" : "POSITION"}, {"bufferView" : 6, "byteOffset" : 12, "componentType" : 5126, "count" : 5022, "type" : "VEC3", "max" : [0.9990524053573608, 0.9930132627487183, 0.8005309104919434], "min" : [-0.9990530014038086, -0.9933788776397705, -0.9900137186050415], "name" : "NORMAL"}, {"bufferView" : 6, "byteOffset" : 24, "componentType" : 5126, "count" : 5022, "type" : "VEC2", "max" : [0.9857610464096069, 0.9892195463180542], "min" : [0.018731044605374336, 0.07936090230941772], "name" : "TEXCOORD_0"}, {"bufferView" : 0, "byteOffset" : 48888, "componentType" : 5123, "count" : 3183, "type" : "SCALAR", "max" : [3182], "min" : [0]}, {"bufferView" : 7, "byteOffset" : 0, "componentType" : 5126, "count" : 3183, "type" : "VEC3", "max" : [0.19669388234615326, 0.12367129325866699, 1.07326340675354], "min" : [-0.19601324200630188, -0.13557851314544678, 0.19393481314182281], "name" : "POSITION"}, {"bufferView" : 7, "byteOffset" : 12, "componentType" : 5126, "count" : 3183, "type" : "VEC3", "max" : [0.9999282956123352, 0.9999939203262329, 0.6503287553787231], "min" : [-0.9999285340309143, -0.999135434627533, -0.9999528527259827], "name" : "NORMAL"}, {"bufferView" : 7, "byteOffset" : 24, "componentType" : 5126, "count" : 3183, "type" : "VEC2", "max" : [0.9872713088989258, 0.9939693808555603], "min" : [0.015709467232227325, 0.09439772367477417], "name" : "TEXCOORD_0"}, {"bufferView" : 0, "byteOffset" : 55256, "componentType" : 5123, "count" : 3966, "type" : "SCALAR", "max" : [3965], "min" : [0]}, {"bufferView" : 8, "byteOffset" : 0, "componentType" : 5126, "count" : 3966, "type" : "VEC3", "max" : [0.2370341718196869, 0.12956233322620392, 0.18304969370365143], "min" : [-0.23703961074352264, -0.24138110876083374, 0.0007629976025782526], "name" : "POSITION"}, {"bufferView" : 8, "byteOffset" : 12, "componentType" : 5126, "count" : 3966, "type" : "VEC3", "max" : [0.9999164342880249, 0.9961758852005005, 0.9974510073661804], "min" : [-0.999916672706604, -0.9950022101402283, -1.0000044107437134], "name" : "NORMAL"}, {"bufferView" : 8, "byteOffset" : 24, "componentType" : 5126, "count" : 3966, "type" : "VEC2", "max" : [0.9763879776000977, 0.9864959716796875], "min" : [0.009003999643027782, 0.012317001819610596], "name" : "TEXCOORD_0"}, {"bufferView" : 0, "byteOffset" : 63188, "componentType" : 5123, "count" : 7722, "type" : "SCALAR", "max" : [7721], "min" : [0]}, {"bufferView" : 9, "byteOffset" : 0, "componentType" : 5126, "count" : 7722, "type" : "VEC3", "max" : [0.46988725662231445, 0.20412497222423553, 1.652168869972229], "min" : [-0.47035959362983704, -0.1634330153465271, 1.002013087272644], "name" : "POSITION"}, {"bufferView" : 9, "byteOffset" : 12, "componentType" : 5126, "count" : 7722, "type" : "VEC3", "max" : [0.9998717308044434, 0.9998067617416382, 0.9818764328956604], "min" : [-0.9999059438705444, -0.9998990297317505, -0.9939312934875488], "name" : "NORMAL"}, {"bufferView" : 9, "byteOffset" : 24, "componentType" : 5126, "count" : 7722, "type" : "VEC2", "max" : [0.9807490706443787, 0.9795655608177185], "min" : [0.021974602714180946, 0.02858835458755493], "name" : "TEXCOORD_0"}, {"bufferView" : 10, "byteOffset" : 0, "componentType" : 5126, "normalized" : false, "count" : 419, "type" : "SCALAR", "max" : [13.933333333333334], "min" : [0]}, {"bufferView" : 10, "byteOffset" : 1676, "componentType" : 5126, "normalized" : false, "count" : 419, "type" : "VEC3", "max" : [0.033944424241781235, 0.04002872481942177, 1.0255428552627563], "min" : [-0.12747561931610107, -0.018946927040815353, 1.0077967643737793]}], "animations" : [{"channels" : [{"sampler" : 0, "target" : {"node" : -1, "path" : "translation"}}], "samplers" : [{"input" : 36, "interpolation" : "CUBICSPLINE", "output" : 37}], "name" : "mixamo.com"}], "asset" : {"generator" : "Aspose.3D 24.1.0", "version" : "2.0"}, "buffers" : [{"uri" : "data:application/octet-stream;base64,", "byteLength" : 1343460}], "bufferViews" : [{"buffer" : 0, "byteOffset" : 0, "byteLength" : 78632, "target" : 34963}, {"buffer" : 0, "byteOffset" : 78636, "byteLength" : 19776, "byteStride" : 32, "target" : 34962}, {"buffer" : 0, "byteOffset" : 98416, "byteLength" : 19776, "byteStride" : 32, "target" : 34962}, {"buffer" : 0, "byteOffset" : 118196, "byteLength" : 393024, "byteStride" : 32, "target" : 34962}, {"buffer" : 0, "byteOffset" : 511224, "byteLength" : 9600, "byteStride" : 32, "target" : 34962}, {"buffer" : 0, "byteOffset" : 520828, "byteLength" : 179328, "byteStride" : 32, "target" : 34962}, {"buffer" : 0, "byteOffset" : 700160, "byteLength" : 160704, "byteStride" : 32, "target" : 34962}, {"buffer" : 0, "byteOffset" : 860868, "byteLength" : 101856, "byteStride" : 32, "target" : 34962}, {"buffer" : 0, "byteOffset" : 962728, "byteLength" : 126912, "byteStride" : 32, "target" : 34962}, {"buffer" : 0, "byteOffset" : 1089644, "byteLength" : 247104, "byteStride" : 32, "target" : 34962}, {"buffer" : 0, "byteOffset" : 1336752, "byteLength" : 6704}], "materials" : [{"name" : "Wolf3D_Eye", "pbrMetallicRoughness" : {"baseColorFactor" : [0.800000011920929, 0.800000011920929, 0.800000011920929, 1], "metallicFactor" : 1, "roughnessFactor" : 1}, "emissiveFactor" : [0, 0, 0], "alphaMode" : "OPAQUE", "doubleSided" : false}, {"name" : "Wolf3D_Eye", "pbrMetallicRoughness" : {"baseColorFactor" : [0.800000011920929, 0.800000011920929, 0.800000011920929, 1], "metallicFactor" : 1, "roughnessFactor" : 1}, "emissiveFactor" : [0, 0, 0], "alphaMode" : "OPAQUE", "doubleSided" : false}, {"name" : "Wolf3D_Skin", "pbrMetallicRoughness" : {"baseColorFactor" : [0.800000011920929, 0.800000011920929, 0.800000011920929, 1], "metallicFactor" : 1, "roughnessFactor" : 1}, "emissiveFactor" : [0, 0, 0], "alphaMode" : "OPAQUE", "doubleSided" : false}, {"name" : "Wolf3D_Teeth", "pbrMetallicRoughness" : {"baseColorFactor" : [0.800000011920929, 0.800000011920929, 0.800000011920929, 1], "metallicFactor" : 1, "roughnessFactor" : 1}, "emissiveFactor" : [0, 0, 0], "alphaMode" : "OPAQUE", "doubleSided" : false}, {"name" : "Wolf3D_Hair", "pbrMetallicRoughness" : {"baseColorFactor" : [0.800000011920929, 0.800000011920929, 0.800000011920929, 1], "metallicFactor" : 1, "roughnessFactor" : 1}, "emissiveFactor" : [0, 0, 0], "alphaMode" : "OPAQUE", "doubleSided" : false}, {"name" : "Wolf3D_Body", "pbrMetallicRoughness" : {"baseColorFactor" : [0.800000011920929, 0.800000011920929, 0.800000011920929, 1], "metallicFactor" : 1, "roughnessFactor" : 1}, "emissiveFactor" : [0, 0, 0], "alphaMode" : "OPAQUE", "doubleSided" : false}, {"name" : "Wolf3D_Outfit_Bottom", "pbrMetallicRoughness" : {"baseColorFactor" : [0.800000011920929, 0.800000011920929, 0.800000011920929, 1], "metallicFactor" : 1, "roughnessFactor" : 1}, "emissiveFactor" : [0, 0, 0], "alphaMode" : "OPAQUE", "doubleSided" : false}, {"name" : "Wolf3D_Outfit_Footwear", "pbrMetallicRoughness" : {"baseColorFactor" : [0.800000011920929, 0.800000011920929, 0.800000011920929, 1], "metallicFactor" : 1, "roughnessFactor" : 1}, "emissiveFactor" : [0, 0, 0], "alphaMode" : "OPAQUE", "doubleSided" : false}, {"name" : "Wolf3D_Outfit_Top", "pbrMetallicRoughness" : {"baseColorFactor" : [0.800000011920929, 0.800000011920929, 0.800000011920929, 1], "metallicFactor" : 1, "roughnessFactor" : 1}, "emissiveFactor" : [0, 0, 0], "alphaMode" : "OPAQUE", "doubleSided" : false}], "meshes" : [{"primitives" : [{"attributes" : {"POSITION" : 1, "NORMAL" : 2, "TEXCOORD_0" : 3}, "indices" : 0, "material" : 0, "mode" : 4}], "name" : "EyeLeft"}, {"primitives" : [{"attributes" : {"POSITION" : 5, "NORMAL" : 6, "TEXCOORD_0" : 7}, "indices" : 4, "material" : 1, "mode" : 4}], "name" : "EyeRight"}, {"primitives" : [{"attributes" : {"POSITION" : 9, "NORMAL" : 10, "TEXCOORD_0" : 11}, "indices" : 8, "material" : 2, "mode" : 4}], "name" : "Wolf3D_Head"}, {"primitives" : [{"attributes" : {"POSITION" : 13, "NORMAL" : 14, "TEXCOORD_0" : 15}, "indices" : 12, "material" : 3, "mode" : 4}], "name" : "Wolf3D_Teeth"}, {"primitives" : [{"attributes" : {"POSITION" : 17, "NORMAL" : 18, "TEXCOORD_0" : 19}, "indices" : 16, "material" : 4, "mode" : 4}], "name" : "Wolf3D_Hair"}, {"primitives" : [{"attributes" : {"POSITION" : 21, "NORMAL" : 22, "TEXCOORD_0" : 23}, "indices" : 20, "material" : 5, "mode" : 4}], "name" : "Wolf3D_Body"}, {"primitives" : [{"attributes" : {"POSITION" : 25, "NORMAL" : 26, "TEXCOORD_0" : 27}, "indices" : 24, "material" : 6, "mode" : 4}], "name" : "Wolf3D_Outfit_Bottom"}, {"primitives" : [{"attributes" : {"POSITION" : 29, "NORMAL" : 30, "TEXCOORD_0" : 31}, "indices" : 28, "material" : 7, "mode" : 4}], "name" : "Wolf3D_Outfit_Footwear"}, {"primitives" : [{"attributes" : {"POSITION" : 33, "NORMAL" : 34, "TEXCOORD_0" : 35}, "indices" : 32, "material" : 8, "mode" : 4}], "name" : "Wolf3D_Outfit_Top"}], "nodes" : [{"matrix" : [100, 0, 0, 0, 0, -1.6292067955264296E-05, -99.99999999999866, 0, 0, 99.99999999999866, -1.6292067955264296E-05, 0, 0, 0, 0, 1], "mesh" : 0, "name" : "EyeLeft"}, {"matrix" : [100, 0, 0, 0, 0, -1.6292067955264296E-05, -99.99999999999866, 0, 0, 99.99999999999866, -1.6292067955264296E-05, 0, 0, 0, 0, 1], "mesh" : 1, "name" : "EyeRight"}, {"matrix" : [100, 0, 0, 0, 0, -1.6292067955264296E-05, -99.99999999999866, 0, 0, 99.99999999999866, -1.6292067955264296E-05, 0, 0, 0, 0, 1], "mesh" : 2, "name" : "Wolf3D_Head"}, {"matrix" : [100, 0, 0, 0, 0, -1.6292067955264296E-05, -99.99999999999866, 0, 0, 99.99999999999866, -1.6292067955264296E-05, 0, 0, 0, 0, 1], "mesh" : 3, "name" : "Wolf3D_Teeth"}, {"matrix" : [100, 0, 0, 0, 0, -1.6292067955264296E-05, -99.99999999999866, 0, 0, 99.99999999999866, -1.6292067955264296E-05, 0, 0, 0, 0, 1], "mesh" : 4, "name" : "Wolf3D_Hair"}, {"matrix" : [100, 0, 0, 0, 0, -1.6292067955264296E-05, -99.99999999999866, 0, 0, 99.99999999999866, -1.6292067955264296E-05, 0, 0, 0, 0, 1], "mesh" : 5, "name" : "Wolf3D_Body"}, {"matrix" : [100, 0, 0, 0, 0, -1.6292067955264296E-05, -99.99999999999866, 0, 0, 99.99999999999866, -1.6292067955264296E-05, 0, 0, 0, 0, 1], "mesh" : 6, "name" : "Wolf3D_Outfit_Bottom"}, {"matrix" : [100, 0, 0, 0, 0, -1.6292067955264296E-05, -99.99999999999866, 0, 0, 99.99999999999866, -1.6292067955264296E-05, 0, 0, 0, 0, 1], "mesh" : 7, "name" : "Wolf3D_Outfit_Footwear"}, {"matrix" : [100, 0, 0, 0, 0, -1.6292067955264296E-05, -99.99999999999866, 0, 0, 99.99999999999866, -1.6292067955264296E-05, 0, 0, 0, 0, 1], "mesh" : 8, "name" : "Wolf3D_Outfit_Top"}], "scene" : 0, "scenes" : [{"nodes" : [0, 1, 2, 3, 4, 5, 6, 7, 8]}]}